<?xml version="1.0" encoding="UTF-8"?>
<!DOCTYPE svg PUBLIC "-//W3C//DTD SVG 1.1//EN" "http://www.w3.org/Graphics/SVG/1.1/DTD/svg11.dtd">
<svg xmlns="http://www.w3.org/2000/svg" version="1.1" width="290px" height="290px" style="shape-rendering:geometricPrecision; text-rendering:geometricPrecision; image-rendering:optimizeQuality; fill-rule:evenodd; clip-rule:evenodd" xmlns:xlink="http://www.w3.org/1999/xlink">
<g><path style="opacity:0.004" fill="#feff00" d="M 246.5,5.5 C 247.833,6.16667 247.833,6.16667 246.5,5.5 Z"/></g>
<g><path style="opacity:0.004" fill="#feff00" d="M 200.5,8.5 C 201.833,9.16667 201.833,9.16667 200.5,8.5 Z"/></g>
<g><path style="opacity:0.004" fill="#feff00" d="M 122.5,11.5 C 123.833,12.1667 123.833,12.1667 122.5,11.5 Z"/></g>
<g><path style="opacity:0.004" fill="#feff00" d="M 81.5,14.5 C 82.8333,15.1667 82.8333,15.1667 81.5,14.5 Z"/></g>
<g><path style="opacity:0.004" fill="#feff00" d="M 257.5,14.5 C 258.833,15.1667 258.833,15.1667 257.5,14.5 Z"/></g>
<g><path style="opacity:0.004" fill="#feff00" d="M 227.5,19.5 C 228.833,20.1667 228.833,20.1667 227.5,19.5 Z"/></g>
<g><path style="opacity:0.004" fill="#feff00" d="M 3.5,22.5 C 4.83333,23.1667 4.83333,23.1667 3.5,22.5 Z"/></g>
<g><path style="opacity:0.004" fill="#feff00" d="M 277.5,34.5 C 278.833,35.1667 278.833,35.1667 277.5,34.5 Z"/></g>
<g><path style="opacity:0.004" fill="#feff00" d="M 282.5,34.5 C 283.833,35.1667 283.833,35.1667 282.5,34.5 Z"/></g>
<g><path style="opacity:0.004" fill="#feff00" d="M 165.5,40.5 C 166.833,41.1667 166.833,41.1667 165.5,40.5 Z"/></g>
<g><path style="opacity:0.004" fill="#feff00" d="M 105.5,45.5 C 106.833,46.1667 106.833,46.1667 105.5,45.5 Z"/></g>
<g><path style="opacity:0.004" fill="#feff00" d="M 204.5,48.5 C 205.833,49.1667 205.833,49.1667 204.5,48.5 Z"/></g>
<g><path style="opacity:0.004" fill="#feff00" d="M 54.5,51.5 C 55.8333,52.1667 55.8333,52.1667 54.5,51.5 Z"/></g>
<g><path style="opacity:0.004" fill="#feff00" d="M 123.5,54.5 C 124.833,55.1667 124.833,55.1667 123.5,54.5 Z"/></g>
<g><path style="opacity:0.004" fill="#feff00" d="M 177.5,54.5 C 178.833,55.1667 178.833,55.1667 177.5,54.5 Z"/></g>
<g><path style="opacity:0.004" fill="#feff00" d="M 103.5,55.5 C 104.833,56.1667 104.833,56.1667 103.5,55.5 Z"/></g>
<g><path style="opacity:0.004" fill="#feff00" d="M 106.5,58.5 C 107.833,59.1667 107.833,59.1667 106.5,58.5 Z"/></g>
<g><path style="opacity:0.004" fill="#feff00" d="M 161.5,62.5 C 162.833,63.1667 162.833,63.1667 161.5,62.5 Z"/></g>
<g><path style="opacity:0.004" fill="#feff00" d="M 262.5,64.5 C 263.833,65.1667 263.833,65.1667 262.5,64.5 Z"/></g>
<g><path style="opacity:0.004" fill="#feff00" d="M 60.5,65.5 C 61.8333,66.1667 61.8333,66.1667 60.5,65.5 Z"/></g>
<g><path style="opacity:0.09" fill="#617888" d="M 266.5,68.5 C 220.694,67.8482 175.027,67.1815 129.5,66.5C 131.467,66.7394 133.301,66.4061 135,65.5C 178.096,66.3305 221.262,66.8305 264.5,67C 265.416,67.2784 266.082,67.7784 266.5,68.5 Z"/></g>
<g><path style="opacity:0.659" fill="#4f81c4" d="M 129.5,66.5 C 175.027,67.1815 220.694,67.8482 266.5,68.5C 267.833,82.5 267.833,96.5 266.5,110.5C 266.667,97.1625 266.5,83.8292 266,70.5C 264.933,69.8095 263.766,69.3095 262.5,69C 210.833,68.3333 159.167,68.3333 107.5,69C 98.1213,69.9524 88.788,71.1191 79.5,72.5C 81.2774,71.3995 83.2774,70.5662 85.5,70C 100.024,67.0614 114.69,65.8948 129.5,66.5 Z"/></g>
<g><path style="opacity:1" fill="#3a82f6" d="M 266.5,110.5 C 213.489,109.838 160.823,110.504 108.5,112.5C 103.175,114.278 97.8421,116.278 92.5,118.5C 90.5648,119.15 88.5648,119.483 86.5,119.5C 85.4435,123.685 83.2768,124.352 80,121.5C 80.2779,125.648 78.7779,129.315 75.5,132.5C 74.914,132.291 74.414,131.957 74,131.5C 72.2717,136.881 70.4383,142.214 68.5,147.5C 67.4311,152.8 67.2644,158.134 68,163.5C 69.3792,165.715 71.2125,167.381 73.5,168.5C 73.3433,169.873 73.51,171.207 74,172.5C 76.9148,175.161 79.7482,177.828 82.5,180.5C 83.3857,181.325 83.719,182.325 83.5,183.5C 84.675,183.281 85.675,183.614 86.5,184.5C 85.3468,187.662 86.3468,188.329 89.5,186.5C 93.4624,189.084 97.7958,190.584 102.5,191C 118.163,191.5 133.83,191.667 149.5,191.5C 149.825,183.981 149.492,176.648 148.5,169.5C 148.5,168.833 148.167,168.5 147.5,168.5C 130.532,166.514 113.199,165.847 95.5,166.5C 97.1667,163.167 98.8333,159.833 100.5,156.5C 105.197,150.809 109.863,145.142 114.5,139.5C 118.311,137.564 120.978,134.564 122.5,130.5C 147.169,130.333 171.836,130.5 196.5,131C 197.044,131.717 197.711,132.217 198.5,132.5C 198.5,165.167 198.5,197.833 198.5,230.5C 164.498,230.667 130.498,230.5 96.5,230C 93.0244,228.746 89.3577,228.079 85.5,228C 82.3558,227.034 79.3558,225.701 76.5,224C 74.1902,223.503 71.8568,223.337 69.5,223.5C 68.6732,220.891 67.0065,218.891 64.5,217.5C 62.5466,218.156 60.5466,218.489 58.5,218.5C 58.5,217.5 58.5,216.5 58.5,215.5C 56.5,215.5 54.5,215.5 52.5,215.5C 48.6367,214.306 45.6367,211.973 43.5,208.5C 42.0712,205.692 41.4045,202.692 41.5,199.5C 38.3552,199.507 35.6885,198.507 33.5,196.5C 33.5,196.167 33.5,195.833 33.5,195.5C 30.4993,190.102 27.4993,184.768 24.5,179.5C 24.4558,174.653 23.6225,169.987 22,165.5C 21.1482,164.429 20.3149,163.429 19.5,162.5C 18.2176,153.164 18.2176,143.831 19.5,134.5C 19.5,133.5 19.5,132.5 19.5,131.5C 21.8488,126.476 24.5155,121.476 27.5,116.5C 28.4207,114.223 29.0874,111.89 29.5,109.5C 30.7589,105.975 32.7589,102.975 35.5,100.5C 38.8991,98.6117 41.8991,96.1117 44.5,93C 47.5396,92.404 50.2063,91.2373 52.5,89.5C 52.5,88.5 52.5,87.5 52.5,86.5C 54.6188,86.5323 55.9522,85.5323 56.5,83.5C 63.4691,78.5166 71.1358,74.8499 79.5,72.5C 88.788,71.1191 98.1213,69.9524 107.5,69C 159.167,68.3333 210.833,68.3333 262.5,69C 263.766,69.3095 264.933,69.8095 266,70.5C 266.5,83.8292 266.667,97.1625 266.5,110.5 Z"/></g>
<g><path style="opacity:0.004" fill="#feff00" d="M 32.5,88.5 C 33.8333,89.1667 33.8333,89.1667 32.5,88.5 Z"/></g>
<g><path style="opacity:0.404" fill="#4c6ea5" d="M 56.5,83.5 C 55.9522,85.5323 54.6188,86.5323 52.5,86.5C 52.5,87.5 52.5,88.5 52.5,89.5C 50.2063,91.2373 47.5396,92.404 44.5,93C 41.8991,96.1117 38.8991,98.6117 35.5,100.5C 41.2095,93.1573 48.2095,87.4906 56.5,83.5 Z"/></g>
<g><path style="opacity:0.004" fill="#feff00" d="M 23.5,110.5 C 24.8333,111.167 24.8333,111.167 23.5,110.5 Z"/></g>
<g><path style="opacity:0.553" fill="#527cb4" d="M 266.5,110.5 C 265.504,111.665 264.171,112.332 262.5,112.5C 211.16,111.2 159.826,111.2 108.5,112.5C 160.823,110.504 213.489,109.838 266.5,110.5 Z"/></g>
<g><path style="opacity:0.004" fill="#feff00" d="M 203.5,113.5 C 204.833,114.167 204.833,114.167 203.5,113.5 Z"/></g>
<g><path style="opacity:0.565" fill="#5274a1" d="M 29.5,109.5 C 29.0874,111.89 28.4207,114.223 27.5,116.5C 24.5155,121.476 21.8488,126.476 19.5,131.5C 21.2437,123.352 24.5771,116.019 29.5,109.5 Z"/></g>
<g><path style="opacity:1" fill="#4f7bc4" d="M 92.5,118.5 C 79.9662,127.041 72.2995,138.874 69.5,154C 70.5349,158.935 71.8682,163.768 73.5,168.5C 71.2125,167.381 69.3792,165.715 68,163.5C 67.2644,158.134 67.4311,152.8 68.5,147.5C 70.4383,142.214 72.2717,136.881 74,131.5C 74.414,131.957 74.914,132.291 75.5,132.5C 78.7779,129.315 80.2779,125.648 80,121.5C 83.2768,124.352 85.4435,123.685 86.5,119.5C 88.5648,119.483 90.5648,119.15 92.5,118.5 Z"/></g>
<g><path style="opacity:0.004" fill="#feff00" d="M 157.5,121.5 C 158.833,122.167 158.833,122.167 157.5,121.5 Z"/></g>
<g><path style="opacity:0.004" fill="#feff00" d="M 286.5,127.5 C 287.833,128.167 287.833,128.167 286.5,127.5 Z"/></g>
<g><path style="opacity:0.865" fill="#5983ba" d="M 198.5,132.5 C 197.711,132.217 197.044,131.717 196.5,131C 171.836,130.5 147.169,130.333 122.5,130.5C 122.918,129.778 123.584,129.278 124.5,129C 148.167,128.333 171.833,128.333 195.5,129C 197.426,129.422 198.426,130.589 198.5,132.5 Z"/></g>
<g><path style="opacity:0.541" fill="#5882ab" d="M 122.5,130.5 C 120.978,134.564 118.311,137.564 114.5,139.5C 116.942,136.271 119.608,133.271 122.5,130.5 Z"/></g>
<g><path style="opacity:1" fill="#3a82f7" d="M 264.5,130.5 C 265.833,146.486 266.499,162.819 266.5,179.5C 266.167,195.833 265.833,212.167 265.5,228.5C 264.3,229.531 262.966,230.365 261.5,231C 249.633,231.186 237.966,232.019 226.5,233.5C 224.726,232.983 223.059,232.65 221.5,232.5C 220.817,230.824 219.483,230.157 217.5,230.5C 217.333,197.498 217.5,164.498 218,131.5C 233.417,129.479 248.917,129.145 264.5,130.5 Z"/></g>
<g><path style="opacity:0.004" fill="#feff00" d="M 270.5,141.5 C 271.833,142.167 271.833,142.167 270.5,141.5 Z"/></g>
<g><path style="opacity:0.004" fill="#feff00" d="M 271.5,149.5 C 272.833,150.167 272.833,150.167 271.5,149.5 Z"/></g>
<g><path style="opacity:0.106" fill="#587290" d="M 19.5,134.5 C 18.2176,143.831 18.2176,153.164 19.5,162.5C 18.7656,161.122 18.0989,159.622 17.5,158C 17.0243,150.134 17.6909,142.301 19.5,134.5 Z"/></g>
<g><path style="opacity:0.52" fill="#4d77c0" d="M 259.5,128.5 C 261.167,129.167 262.833,129.833 264.5,130.5C 248.917,129.145 233.417,129.479 218,131.5C 217.5,164.498 217.333,197.498 217.5,230.5C 219.483,230.157 220.817,230.824 221.5,232.5C 218.762,233.035 216.928,232.035 216,229.5C 215.333,196.5 215.333,163.5 216,130.5C 217.353,129.296 219.019,128.629 221,128.5C 233.825,127.534 246.658,127.534 259.5,128.5 Z"/></g>
<g><path style="opacity:0.443" fill="#6086b3" d="M 198.5,132.5 C 199.228,148.009 199.895,163.675 200.5,179.5C 200.569,195.746 200.402,212.079 200,228.5C 199.722,229.416 199.222,230.082 198.5,230.5C 198.5,197.833 198.5,165.167 198.5,132.5 Z"/></g>
<g><path style="opacity:0.004" fill="#feff00" d="M 204.5,164.5 C 205.833,165.167 205.833,165.167 204.5,164.5 Z"/></g>
<g><path style="opacity:0.004" fill="#feff00" d="M 83.5,165.5 C 84.8333,166.167 84.8333,166.167 83.5,165.5 Z"/></g>
<g><path style="opacity:0.957" fill="#4a77b6" d="M 19.5,162.5 C 20.3149,163.429 21.1482,164.429 22,165.5C 23.6225,169.987 24.4558,174.653 24.5,179.5C 21.4464,174.33 19.7798,168.664 19.5,162.5 Z"/></g>
<g><path style="opacity:0.755" fill="#577fb6" d="M 100.5,156.5 C 98.8333,159.833 97.1667,163.167 95.5,166.5C 113.199,165.847 130.532,166.514 147.5,168.5C 130.497,168.667 113.497,168.5 96.5,168C 95.09,167.632 94.09,166.799 93.5,165.5C 95.5061,162.171 97.8394,159.171 100.5,156.5 Z"/></g>
<g><path style="opacity:0.004" fill="#feff00" d="M 283.5,171.5 C 284.833,172.167 284.833,172.167 283.5,171.5 Z"/></g>
<g><path style="opacity:0.004" fill="#feff00" d="M 12.5,181.5 C 13.8333,182.167 13.8333,182.167 12.5,181.5 Z"/></g>
<g><path style="opacity:0.776" fill="#5f83ab" d="M 24.5,179.5 C 27.4993,184.768 30.4993,190.102 33.5,195.5C 28.9651,191.104 25.9651,185.77 24.5,179.5 Z"/></g>
<g><path style="opacity:0.343" fill="#3d5475" d="M 147.5,168.5 C 148.167,168.5 148.5,168.833 148.5,169.5C 148.666,175.842 148.5,182.175 148,188.5C 147.25,189.126 146.416,189.626 145.5,190C 129.472,190.824 113.472,190.49 97.5,189C 95.1973,186.866 92.5307,185.366 89.5,184.5C 88.7025,184.043 88.3691,183.376 88.5,182.5C 94.1961,185.231 100.196,187.065 106.5,188C 119.833,188.667 133.167,188.667 146.5,188C 147.478,181.59 147.811,175.09 147.5,168.5 Z"/></g>
<g><path style="opacity:0.758" fill="#3c70c6" d="M 73.5,168.5 C 77.8714,173.873 82.8714,178.539 88.5,182.5C 88.3691,183.376 88.7025,184.043 89.5,184.5C 92.5307,185.366 95.1973,186.866 97.5,189C 113.472,190.49 129.472,190.824 145.5,190C 146.416,189.626 147.25,189.126 148,188.5C 148.5,182.175 148.666,175.842 148.5,169.5C 149.492,176.648 149.825,183.981 149.5,191.5C 133.83,191.667 118.163,191.5 102.5,191C 97.7958,190.584 93.4624,189.084 89.5,186.5C 86.3468,188.329 85.3468,187.662 86.5,184.5C 85.675,183.614 84.675,183.281 83.5,183.5C 83.719,182.325 83.3857,181.325 82.5,180.5C 79.7482,177.828 76.9148,175.161 74,172.5C 73.51,171.207 73.3433,169.873 73.5,168.5 Z"/></g>
<g><path style="opacity:0.004" fill="#feff00" d="M 125.5,178.5 C 126.833,179.167 126.833,179.167 125.5,178.5 Z"/></g>
<g><path style="opacity:0.004" fill="#feff00" d="M 123.5,178.5 C 124.833,179.167 124.833,179.167 123.5,178.5 Z"/></g>
<g><path style="opacity:0.004" fill="#feff00" d="M 103.5,176.5 C 104.833,177.167 104.833,177.167 103.5,176.5 Z"/></g>
<g><path style="opacity:0.004" fill="#feff00" d="M 94.5,173.5 C 95.8333,174.167 95.8333,174.167 94.5,173.5 Z"/></g>
<g><path style="opacity:0.004" fill="#feff00" d="M 5.5,200.5 C 6.83333,201.167 6.83333,201.167 5.5,200.5 Z"/></g>
<g><path style="opacity:1" fill="#5b88d2" d="M 33.5,196.5 C 35.6885,198.507 38.3552,199.507 41.5,199.5C 41.4045,202.692 42.0712,205.692 43.5,208.5C 39.224,205.279 35.8907,201.279 33.5,196.5 Z"/></g>
<g><path style="opacity:0.947" fill="#5785c6" d="M 52.5,215.5 C 54.5,215.5 56.5,215.5 58.5,215.5C 58.5,216.5 58.5,217.5 58.5,218.5C 60.5466,218.489 62.5466,218.156 64.5,217.5C 67.0065,218.891 68.6732,220.891 69.5,223.5C 71.8568,223.337 74.1902,223.503 76.5,224C 79.3558,225.701 82.3558,227.034 85.5,228C 89.3577,228.079 93.0244,228.746 96.5,230C 130.498,230.5 164.498,230.667 198.5,230.5C 198.389,231.117 198.056,231.617 197.5,232C 165.5,232.667 133.5,232.667 101.5,232C 86.9685,230.229 72.9685,226.562 59.5,221C 56.7339,219.629 54.4006,217.796 52.5,215.5 Z"/></g>
<g><path style="opacity:0.004" fill="#feff00" d="M 206.5,231.5 C 207.833,232.167 207.833,232.167 206.5,231.5 Z"/></g>
<g><path style="opacity:0.525" fill="#5880b8" d="M 259.5,128.5 C 262.119,128.232 264.619,128.565 267,129.5C 267.667,163.167 267.667,196.833 267,230.5C 265.829,231.893 264.329,232.727 262.5,233C 250.505,233.5 238.505,233.667 226.5,233.5C 237.966,232.019 249.633,231.186 261.5,231C 262.966,230.365 264.3,229.531 265.5,228.5C 265.833,212.167 266.167,195.833 266.5,179.5C 266.499,162.819 265.833,146.486 264.5,130.5C 262.833,129.833 261.167,129.167 259.5,128.5 Z"/></g>
<g><path style="opacity:0.004" fill="#feff00" d="M 15.5,233.5 C 16.8333,234.167 16.8333,234.167 15.5,233.5 Z"/></g>
<g><path style="opacity:0.004" fill="#feff00" d="M 207.5,233.5 C 208.833,234.167 208.833,234.167 207.5,233.5 Z"/></g>
<g><path style="opacity:0.004" fill="#feff00" d="M 215.5,240.5 C 216.833,241.167 216.833,241.167 215.5,240.5 Z"/></g>
<g><path style="opacity:0.004" fill="#feff00" d="M 154.5,242.5 C 155.833,243.167 155.833,243.167 154.5,242.5 Z"/></g>
<g><path style="opacity:0.004" fill="#feff00" d="M 37.5,244.5 C 38.8333,245.167 38.8333,245.167 37.5,244.5 Z"/></g>
<g><path style="opacity:0.004" fill="#feff00" d="M 100.5,245.5 C 101.833,246.167 101.833,246.167 100.5,245.5 Z"/></g>
<g><path style="opacity:0.004" fill="#feff00" d="M 35.5,246.5 C 36.8333,247.167 36.8333,247.167 35.5,246.5 Z"/></g>
<g><path style="opacity:0.004" fill="#feff00" d="M 276.5,255.5 C 277.833,256.167 277.833,256.167 276.5,255.5 Z"/></g>
<g><path style="opacity:0.004" fill="#feff00" d="M 47.5,257.5 C 48.8333,258.167 48.8333,258.167 47.5,257.5 Z"/></g>
<g><path style="opacity:0.004" fill="#feff00" d="M 215.5,259.5 C 216.833,260.167 216.833,260.167 215.5,259.5 Z"/></g>
<g><path style="opacity:0.004" fill="#feff00" d="M 242.5,260.5 C 243.833,261.167 243.833,261.167 242.5,260.5 Z"/></g>
<g><path style="opacity:0.004" fill="#feff00" d="M 7.5,261.5 C 8.83333,262.167 8.83333,262.167 7.5,261.5 Z"/></g>
<g><path style="opacity:0.004" fill="#feff00" d="M 39.5,261.5 C 40.8333,262.167 40.8333,262.167 39.5,261.5 Z"/></g>
<g><path style="opacity:0.004" fill="#feff00" d="M 124.5,261.5 C 125.833,262.167 125.833,262.167 124.5,261.5 Z"/></g>
<g><path style="opacity:0.004" fill="#feff00" d="M 133.5,262.5 C 134.833,263.167 134.833,263.167 133.5,262.5 Z"/></g>
<g><path style="opacity:0.004" fill="#feff00" d="M 123.5,263.5 C 124.833,264.167 124.833,264.167 123.5,263.5 Z"/></g>
<g><path style="opacity:0.004" fill="#feff00" d="M 274.5,263.5 C 275.833,264.167 275.833,264.167 274.5,263.5 Z"/></g>
<g><path style="opacity:0.004" fill="#feff00" d="M 19.5,269.5 C 20.8333,270.167 20.8333,270.167 19.5,269.5 Z"/></g>
<g><path style="opacity:0.004" fill="#feff00" d="M 233.5,271.5 C 234.833,272.167 234.833,272.167 233.5,271.5 Z"/></g>
<g><path style="opacity:0.004" fill="#feff00" d="M 138.5,274.5 C 139.833,275.167 139.833,275.167 138.5,274.5 Z"/></g>
<g><path style="opacity:0.004" fill="#feff00" d="M 271.5,274.5 C 272.833,275.167 272.833,275.167 271.5,274.5 Z"/></g>
<g><path style="opacity:0.004" fill="#feff00" d="M 3.5,275.5 C 4.83333,276.167 4.83333,276.167 3.5,275.5 Z"/></g>
<g><path style="opacity:0.004" fill="#feff00" d="M 19.5,275.5 C 20.8333,276.167 20.8333,276.167 19.5,275.5 Z"/></g>
<g><path style="opacity:0.004" fill="#feff00" d="M 211.5,275.5 C 212.833,276.167 212.833,276.167 211.5,275.5 Z"/></g>
<g><path style="opacity:0.004" fill="#feff00" d="M 271.5,275.5 C 270.833,276.167 270.833,276.167 271.5,275.5 Z"/></g>
<g><path style="opacity:0.004" fill="#feff00" d="M 61.5,276.5 C 62.8333,277.167 62.8333,277.167 61.5,276.5 Z"/></g>
<g><path style="opacity:0.004" fill="#feff00" d="M 245.5,278.5 C 246.833,279.167 246.833,279.167 245.5,278.5 Z"/></g>
<g><path style="opacity:0.004" fill="#feff00" d="M 56.5,279.5 C 57.8333,280.167 57.8333,280.167 56.5,279.5 Z"/></g>
<g><path style="opacity:0.004" fill="#feff00" d="M 270.5,280.5 C 271.833,281.167 271.833,281.167 270.5,280.5 Z"/></g>
<g><path style="opacity:0.004" fill="#feff00" d="M 9.5,282.5 C 10.8333,283.167 10.8333,283.167 9.5,282.5 Z"/></g>
<g><path style="opacity:0.004" fill="#feff00" d="M 74.5,289.5 C 73.8333,288.167 73.8333,288.167 74.5,289.5 Z"/></g>
</svg>
